<?xml version="1.0" standalone="no"?>
<!DOCTYPE svg PUBLIC "-//W3C//DTD SVG 20010904//EN"
 "http://www.w3.org/TR/2001/REC-SVG-20010904/DTD/svg10.dtd">
<svg version="1.0" xmlns="http://www.w3.org/2000/svg"
 width="2992.000000pt" height="2992.000000pt" viewBox="0 0 2992.000000 2992.000000"
 preserveAspectRatio="xMidYMid meet">
<metadata>
Created by potrace 1.14, written by Peter Selinger 2001-2017
</metadata>
<g transform="translate(0.000000,2992.000000) scale(0.100000,-0.100000)"
fill="#000000" stroke="none">
<path d="M14518 19435 c-2 -2 -47 -6 -101 -10 -54 -3 -108 -8 -120 -11 -12 -2
-46 -6 -77 -9 -31 -3 -67 -8 -80 -11 -14 -3 -38 -7 -55 -9 -16 -3 -52 -9 -80
-15 -27 -5 -61 -12 -75 -14 -14 -3 -26 -5 -27 -7 -4 -2 -9 -3 -58 -12 -61 -12
-252 -66 -330 -94 -38 -13 -70 -24 -70 -23 0 1 -13 -3 -28 -9 -16 -6 -34 -11
-42 -11 -8 0 -16 -4 -19 -9 -3 -5 -18 -12 -33 -16 -15 -3 -43 -14 -62 -22 -20
-9 -39 -17 -43 -18 -5 -2 -10 -4 -13 -5 -3 -1 -8 -3 -12 -5 -22 -5 -152 -67
-262 -123 -150 -76 -264 -143 -395 -231 -54 -36 -106 -70 -115 -76 -9 -5 -18
-12 -21 -15 -3 -3 -32 -25 -65 -50 -33 -25 -65 -49 -71 -55 -6 -5 -25 -21 -43
-35 -18 -14 -45 -35 -59 -48 -14 -12 -48 -41 -75 -65 -97 -82 -296 -286 -402
-412 -22 -26 -47 -55 -55 -64 -8 -9 -40 -50 -70 -91 -30 -41 -57 -77 -61 -80
-11 -9 -185 -273 -210 -319 -13 -24 -29 -51 -34 -60 -24 -36 -89 -167 -87
-173 1 -5 -2 -8 -6 -8 -5 0 -19 -24 -32 -52 -13 -29 -39 -87 -58 -128 -19 -41
-35 -81 -35 -87 0 -7 -4 -13 -9 -13 -4 0 -8 -6 -8 -12 0 -7 -14 -46 -30 -87
-17 -41 -32 -82 -33 -90 -1 -9 -5 -20 -9 -26 -3 -5 -22 -64 -43 -130 -20 -66
-41 -133 -46 -149 -5 -15 -7 -32 -4 -36 3 -5 1 -10 -4 -12 -5 -1 -12 -19 -14
-38 -3 -19 -6 -35 -7 -35 -2 0 -4 -9 -6 -20 -2 -11 -14 -74 -28 -140 -13 -66
-27 -138 -30 -160 -4 -22 -9 -51 -11 -65 -2 -14 -7 -54 -10 -90 -2 -36 -7 -75
-9 -87 -11 -56 -27 -497 -19 -515 2 -4 6 -58 9 -120 5 -111 11 -203 14 -203 1
0 3 -18 5 -40 6 -70 21 -163 42 -270 9 -44 17 -89 18 -100 2 -11 8 -38 14 -60
6 -22 12 -49 14 -60 22 -124 153 -510 224 -665 39 -84 53 -120 51 -124 -2 -2
6 -13 16 -25 11 -12 15 -21 11 -21 -4 0 -2 -8 7 -17 12 -15 39 -67 43 -83 0
-3 11 -21 23 -40 12 -19 22 -41 22 -47 0 -7 3 -13 8 -13 4 0 13 -15 21 -32 8
-18 17 -35 20 -38 10 -8 42 -64 48 -82 3 -10 9 -18 13 -18 4 0 13 -13 20 -30
7 -16 16 -30 21 -30 5 0 9 -5 9 -10 0 -11 34 -63 58 -88 6 -7 12 -17 12 -21 0
-4 8 -16 18 -27 9 -11 28 -35 42 -54 13 -19 28 -39 32 -45 5 -5 31 -39 59 -75
28 -36 79 -96 113 -135 70 -80 356 -370 356 -361 0 3 15 -9 33 -27 18 -18 52
-48 76 -67 25 -19 49 -40 55 -45 6 -6 27 -22 46 -35 19 -13 46 -35 60 -47 14
-13 33 -26 43 -29 9 -3 17 -9 17 -14 0 -5 8 -11 18 -14 9 -4 35 -22 57 -42 22
-19 64 -57 94 -82 29 -26 65 -57 79 -70 15 -13 39 -31 54 -40 16 -9 28 -20 28
-24 0 -4 5 -8 11 -8 6 0 16 -6 23 -12 7 -7 24 -21 37 -31 113 -82 150 -107
157 -107 5 0 17 -9 27 -20 10 -11 22 -17 26 -14 5 3 9 1 9 -4 0 -5 15 -17 33
-26 17 -10 61 -35 97 -57 157 -95 486 -249 660 -308 36 -12 74 -26 85 -31 70
-32 447 -127 570 -144 17 -3 44 -7 60 -11 17 -3 46 -8 65 -10 46 -6 118 -15
155 -21 77 -11 199 -16 420 -17 242 0 361 7 500 28 17 3 48 7 70 10 22 2 51 6
65 9 14 3 42 7 62 10 21 3 81 15 134 27 53 11 105 22 115 24 11 2 23 6 27 9 5
3 20 7 35 10 15 4 39 8 54 11 14 3 34 10 45 16 10 5 18 8 18 5 0 -3 15 1 34 9
18 8 36 11 40 8 3 -4 6 -1 6 6 0 7 4 10 10 6 5 -3 17 -1 27 4 10 6 47 20 83
31 36 12 72 24 80 27 8 4 17 7 20 8 3 1 19 7 35 15 72 31 93 40 99 40 8 0 136
58 156 71 8 5 26 14 40 19 14 6 33 14 42 20 9 5 49 27 90 48 104 56 144 79
205 118 29 19 58 34 63 34 6 0 10 5 10 10 0 6 6 10 14 10 8 0 16 3 18 8 2 4
29 25 61 46 99 67 229 164 282 211 17 14 45 38 63 52 66 52 278 259 367 358
33 37 67 75 75 84 27 30 166 205 191 241 13 19 27 37 30 40 19 17 204 312 254
405 21 39 42 76 47 83 6 6 7 12 2 12 -5 0 -4 4 1 8 24 17 204 423 197 445 -1
4 3 7 10 7 6 0 9 3 6 6 -3 3 10 49 28 102 19 53 34 97 34 97 -1 0 1 7 3 15 35
111 76 272 81 320 1 9 5 20 8 25 3 6 9 28 12 50 3 22 10 63 16 90 17 90 37
238 45 335 4 41 8 98 11 125 5 56 5 58 5 100 -1 17 0 70 2 118 1 49 -1 91 -5
93 -5 3 -4 13 0 22 5 9 7 26 6 37 -1 11 -5 70 -9 130 -7 119 -8 134 -20 240
-4 39 -9 81 -10 95 -2 14 -4 25 -5 25 -2 0 -4 9 -5 20 -10 73 -15 106 -25 155
-7 30 -13 64 -15 75 -2 11 -7 31 -10 45 -4 14 -8 39 -11 55 -2 17 -7 37 -11
45 -3 8 -7 22 -9 30 -4 20 -16 63 -59 200 -19 63 -36 120 -36 125 -1 6 -10 27
-20 48 -11 20 -17 37 -15 37 3 0 -5 24 -18 53 -25 56 -38 89 -41 97 -7 24
-142 310 -162 344 -7 12 -19 35 -28 51 -8 17 -29 53 -45 80 -17 28 -33 58 -37
68 -3 9 -8 17 -12 17 -3 0 -17 20 -31 45 -14 25 -28 45 -32 45 -5 0 -8 5 -8
11 0 14 -180 270 -210 299 -5 4 -66 78 -110 133 -76 94 -295 311 -425 422 -32
28 -66 57 -75 65 -8 8 -34 28 -55 45 -22 16 -44 33 -50 38 -5 4 -35 26 -65 48
-81 58 -82 59 -155 124 -38 33 -80 69 -95 80 -28 22 -50 40 -81 68 -10 9 -22
17 -25 17 -4 0 -23 14 -43 30 -20 17 -40 34 -46 38 -23 18 -257 172 -260 172
-3 0 -31 17 -62 37 -62 39 -383 205 -424 218 -13 4 -26 8 -29 9 -3 1 -27 12
-55 25 -27 12 -57 24 -65 26 -8 2 -33 11 -55 21 -22 10 -44 19 -50 20 -11 2
-130 42 -155 51 -8 3 -24 8 -35 10 -11 2 -27 6 -35 10 -8 3 -19 7 -25 9 -5 1
-37 10 -70 19 -33 9 -71 18 -84 21 -12 3 -53 12 -90 20 -64 16 -74 18 -136 28
-16 3 -41 8 -55 11 -24 5 -62 11 -140 20 -19 2 -55 6 -80 10 -25 3 -67 8 -95
11 -56 6 -572 14 -577 9z"/>
<path d="M25198 19435 c-1 -1 -48 -6 -103 -9 -95 -7 -132 -10 -200 -21 -16 -3
-52 -7 -80 -10 -27 -3 -57 -8 -65 -10 -8 -3 -33 -7 -55 -11 -22 -3 -78 -15
-125 -25 -97 -22 -121 -27 -152 -34 -30 -6 -199 -54 -218 -62 -8 -3 -19 -7
-25 -8 -35 -8 -206 -71 -290 -106 -16 -7 -32 -13 -35 -14 -29 -8 -245 -110
-251 -118 -3 -4 -16 -9 -27 -10 -12 -1 -22 -4 -22 -8 0 -3 -28 -20 -62 -38
-35 -17 -81 -42 -103 -56 -22 -14 -47 -28 -55 -32 -29 -13 -275 -176 -286
-190 -6 -7 -14 -13 -18 -13 -9 0 -203 -152 -262 -205 -6 -5 -44 -40 -85 -76
-117 -105 -274 -267 -361 -372 -12 -16 -34 -41 -48 -56 -14 -15 -36 -44 -50
-64 -14 -20 -28 -37 -32 -37 -5 0 -8 -7 -8 -15 0 -8 -3 -15 -7 -15 -5 0 -21
-20 -38 -45 -16 -24 -33 -45 -37 -45 -5 0 -8 -6 -8 -14 0 -7 -11 -25 -24 -39
-13 -14 -21 -28 -18 -31 3 -3 0 -6 -6 -6 -7 0 -12 -6 -12 -13 0 -7 -8 -22 -18
-33 -16 -18 -95 -146 -149 -241 -24 -43 -152 -292 -152 -296 0 -1 -5 -15 -12
-32 -7 -16 -13 -32 -14 -35 0 -3 -8 -21 -17 -40 -66 -143 -181 -491 -204 -620
-3 -14 -7 -32 -10 -40 -15 -41 -54 -252 -57 -307 0 -7 -3 -13 -6 -13 -3 0 -6
-15 -7 -32 -1 -34 -11 -127 -19 -188 -26 -176 -20 -651 10 -845 2 -16 7 -57
10 -90 4 -33 11 -78 15 -99 5 -22 7 -44 4 -48 -3 -4 0 -8 6 -8 6 0 9 -4 6 -9
-3 -4 8 -71 25 -147 17 -77 31 -144 33 -151 1 -7 5 -16 9 -19 4 -4 7 -20 7
-36 0 -15 5 -28 11 -28 5 0 8 -4 4 -9 -3 -5 2 -31 11 -58 9 -26 18 -55 19 -63
2 -8 4 -16 5 -17 2 -2 4 -7 5 -13 1 -5 4 -12 5 -15 1 -3 3 -8 5 -12 1 -5 5
-15 8 -23 7 -16 36 -98 41 -115 2 -5 7 -19 11 -30 5 -11 16 -40 26 -65 9 -25
25 -62 33 -82 9 -21 17 -41 18 -45 1 -5 28 -60 60 -125 32 -64 58 -121 58
-127 0 -6 4 -11 9 -11 5 0 12 -11 15 -25 4 -14 11 -25 17 -25 6 0 8 -4 5 -9
-3 -5 1 -14 9 -21 8 -7 15 -16 15 -21 0 -5 12 -28 27 -52 15 -23 27 -45 26
-48 -1 -4 7 -15 17 -24 11 -10 20 -22 20 -27 0 -13 100 -162 111 -166 5 -2 9
-8 9 -12 0 -8 77 -118 109 -156 5 -6 40 -49 78 -95 115 -141 306 -339 448
-464 37 -33 73 -64 79 -70 16 -15 96 -76 222 -171 61 -46 124 -96 140 -112 16
-15 54 -48 84 -73 74 -60 79 -64 125 -98 22 -17 46 -36 54 -43 16 -14 278
-188 309 -205 12 -7 32 -19 45 -25 12 -7 24 -16 27 -20 7 -9 371 -193 401
-203 29 -9 26 -8 73 -28 21 -9 45 -17 52 -17 8 0 14 -3 14 -8 0 -4 33 -18 73
-31 39 -14 76 -28 82 -33 5 -4 17 -8 27 -8 10 0 26 -4 36 -9 9 -5 37 -15 62
-21 25 -7 59 -17 75 -23 17 -7 35 -12 40 -13 10 -2 84 -20 120 -30 11 -3 27
-7 35 -9 8 -2 15 -4 15 -5 0 -1 9 -3 20 -5 34 -6 69 -13 95 -19 42 -10 133
-27 165 -31 17 -2 44 -6 60 -9 17 -2 53 -7 80 -10 28 -4 68 -8 90 -11 105 -13
187 -17 393 -20 122 -1 222 0 222 4 0 3 28 6 63 6 75 1 224 14 332 31 90 14
149 23 178 29 15 3 37 7 50 9 37 7 171 38 187 44 8 3 20 6 25 7 56 13 182 49
190 55 6 4 25 10 43 14 19 3 48 12 65 20 18 7 61 23 97 36 36 12 89 32 118 46
29 13 55 24 58 24 9 0 291 134 334 160 8 5 56 32 105 60 115 66 206 124 273
173 28 20 52 35 52 33 0 -3 11 5 24 17 13 12 54 45 91 72 38 28 73 55 79 60 6
6 38 32 71 60 154 127 465 439 465 466 0 5 4 9 8 9 4 0 24 21 44 48 20 26 48
61 62 77 15 17 39 48 54 70 15 22 29 42 32 45 15 14 80 111 80 120 0 6 4 10 8
10 4 0 16 15 27 33 10 17 34 56 52 84 18 29 33 56 32 59 0 4 3 10 8 13 16 10
191 338 199 371 0 3 13 32 28 65 15 33 31 69 36 80 24 55 73 189 73 201 0 8 4
14 9 14 4 0 7 3 6 8 -2 6 44 156 59 192 3 8 7 22 8 30 1 8 8 35 15 60 7 25 14
52 15 60 2 8 4 15 5 15 2 0 3 6 34 155 14 69 28 142 32 164 3 21 7 47 9 58 3
11 7 46 10 77 4 31 8 67 10 80 13 77 20 245 19 451 0 239 -9 391 -29 525 -3
22 -8 56 -11 75 -2 19 -6 46 -9 60 -5 25 -13 71 -20 120 -3 14 -9 45 -16 70
-12 50 -20 88 -23 110 -1 8 -5 22 -9 30 -6 14 -23 77 -52 185 -11 42 -50 158
-72 215 -3 8 -7 20 -9 27 -1 7 -9 27 -18 44 -9 18 -16 36 -16 40 0 4 -10 29
-22 56 -12 26 -22 50 -23 53 -13 38 -154 330 -165 340 -3 3 -12 18 -20 35 -22
44 -86 149 -142 233 -26 41 -48 77 -48 82 0 5 -4 10 -8 12 -4 2 -37 44 -72 93
-35 50 -67 92 -70 95 -8 7 -60 70 -100 120 -77 96 -400 428 -400 412 0 -4 -4
-2 -8 4 -10 15 -135 120 -212 179 -36 27 -66 53 -68 57 -2 4 -8 8 -13 8 -15 0
-121 85 -196 157 -13 12 -23 19 -23 16 0 -3 -8 3 -17 14 -25 27 -299 233 -311
233 -6 0 -12 3 -14 8 -5 11 -193 132 -205 132 -3 0 -17 8 -31 18 -46 32 -313
173 -327 172 -3 0 -27 11 -55 25 -27 14 -55 25 -63 25 -7 0 -19 6 -25 13 -7 6
-16 12 -20 12 -4 0 -50 17 -102 37 -155 59 -338 117 -452 144 -10 2 -27 6 -38
9 -11 3 -30 7 -42 10 -13 2 -36 8 -53 12 -16 4 -34 7 -40 8 -5 1 -12 3 -15 4
-3 1 -16 4 -30 7 -14 2 -38 7 -55 9 -16 3 -43 8 -60 10 -16 2 -46 7 -65 10
-50 9 -75 13 -165 20 -44 4 -89 9 -100 12 -23 6 -551 13 -557 8z"/>
<path d="M3898 19095 c-2 -2 -46 -6 -98 -9 -114 -7 -181 -13 -235 -21 -91 -12
-131 -17 -142 -18 -7 0 -13 -4 -13 -9 0 -5 -5 -6 -10 -3 -10 6 -76 -5 -210
-35 -25 -6 -56 -13 -70 -16 -14 -3 -59 -14 -100 -26 -41 -11 -83 -21 -92 -21
-10 -1 -18 -4 -18 -8 0 -5 -29 -14 -80 -23 -3 -1 -9 -4 -15 -7 -10 -6 -146
-53 -155 -54 -3 0 -24 -8 -45 -17 -22 -9 -85 -36 -140 -59 -97 -40 -290 -134
-367 -178 -21 -11 -53 -30 -72 -40 -18 -11 -44 -25 -57 -33 -37 -21 -293 -191
-305 -203 -6 -5 -22 -17 -34 -25 -29 -20 -132 -101 -194 -154 -27 -22 -57 -48
-68 -56 -39 -30 -328 -321 -328 -330 0 -6 -7 -10 -16 -10 -8 0 -13 -4 -10 -9
4 -5 3 -11 -1 -13 -5 -1 -33 -32 -63 -68 -30 -36 -59 -68 -65 -72 -5 -4 -7 -8
-4 -8 4 0 -9 -17 -27 -37 -19 -20 -34 -43 -34 -50 0 -7 -4 -13 -8 -13 -12 0
-142 -189 -239 -345 -61 -100 -203 -371 -203 -389 0 -7 -7 -19 -15 -26 -9 -7
-13 -15 -10 -18 3 -3 -1 -15 -8 -26 -7 -12 -24 -50 -37 -86 -13 -36 -27 -67
-30 -70 -3 -3 -23 -57 -43 -120 -21 -63 -42 -123 -48 -133 -5 -10 -7 -22 -4
-27 4 -6 2 -10 -3 -10 -5 0 -9 -6 -9 -12 0 -7 -9 -40 -19 -73 -10 -33 -18 -64
-19 -70 -1 -5 -3 -12 -4 -15 -3 -6 -7 -23 -14 -62 -3 -15 -8 -32 -12 -38 -3
-5 -8 -24 -10 -42 -4 -32 -6 -47 -21 -113 -4 -16 -8 -37 -9 -45 -1 -13 -7 -49
-20 -120 -9 -49 -19 -144 -32 -280 -15 -164 -6 -741 12 -770 2 -3 6 -39 9 -79
4 -40 8 -76 10 -80 2 -3 7 -28 10 -56 4 -27 14 -79 22 -113 8 -35 12 -68 8
-73 -3 -5 -1 -9 5 -9 5 0 8 -8 6 -17 -1 -10 2 -26 6 -35 5 -10 11 -30 13 -45
2 -15 12 -55 21 -88 9 -33 18 -64 19 -70 5 -19 28 -100 34 -115 3 -8 4 -18 4
-22 -1 -5 3 -8 10 -8 6 0 9 -3 5 -6 -3 -3 1 -25 10 -47 8 -23 16 -46 17 -52 2
-5 9 -23 15 -40 7 -16 14 -37 16 -45 2 -8 11 -33 21 -55 10 -22 18 -42 19 -45
15 -52 171 -377 186 -385 5 -4 7 -11 4 -16 -4 -5 -3 -9 2 -9 4 0 14 -14 22
-31 44 -99 334 -528 395 -584 6 -6 26 -30 45 -54 54 -70 126 -146 270 -286 74
-71 166 -163 205 -203 281 -290 341 -347 510 -484 11 -10 26 -21 31 -26 99
-81 316 -232 333 -232 7 0 12 -4 12 -8 0 -5 17 -17 38 -28 60 -33 87 -49 92
-55 3 -4 33 -21 68 -39 34 -17 65 -36 68 -41 3 -5 9 -7 14 -4 4 3 13 -2 20
-10 7 -8 16 -13 20 -10 4 3 13 -2 20 -10 7 -8 16 -15 21 -15 5 0 43 -17 86
-38 83 -40 165 -75 278 -117 39 -15 79 -30 90 -35 17 -7 91 -32 105 -35 3 -1
43 -13 90 -28 47 -14 108 -31 135 -37 28 -7 57 -14 65 -17 17 -7 15 -6 95 -23
33 -7 70 -14 82 -15 12 -2 25 -5 30 -8 4 -3 28 -8 53 -11 25 -3 54 -8 65 -10
11 -2 43 -7 70 -10 28 -4 63 -9 79 -12 225 -37 717 -36 996 2 19 2 53 7 75 9
22 3 51 7 65 11 14 3 39 7 55 8 17 2 44 6 60 10 49 9 128 26 155 32 14 3 32 7
40 9 8 2 17 4 20 6 3 1 10 3 15 4 17 3 98 25 140 38 22 6 42 12 45 13 3 0 12
3 20 6 8 3 33 11 55 17 56 18 206 70 230 81 11 5 43 18 70 29 28 11 73 30 100
42 28 13 52 24 55 24 31 7 344 174 348 186 2 5 8 7 13 3 5 -3 9 0 9 7 0 7 3
10 6 7 5 -5 121 65 151 91 7 6 17 11 23 11 5 0 10 5 10 10 0 6 5 10 10 10 13
0 170 113 285 206 224 180 448 404 617 618 44 56 89 111 99 124 10 12 19 25
19 28 0 3 16 25 35 48 19 24 35 48 35 54 0 6 3 12 8 14 7 3 69 95 101 151 11
18 44 76 75 129 31 53 56 101 56 107 0 6 5 11 12 11 6 0 8 3 5 6 -4 4 2 19 12
33 15 22 31 53 36 71 0 3 18 41 39 85 22 44 39 86 39 93 0 6 4 12 8 12 4 0 9
10 13 23 3 13 12 39 20 58 8 19 15 39 16 44 1 6 6 16 12 23 6 6 7 12 3 12 -4
0 -3 6 2 13 5 6 16 32 23 57 7 25 17 50 20 55 6 8 14 34 26 80 1 6 14 51 29
100 14 50 29 101 31 115 3 14 8 34 11 45 4 11 8 26 9 34 2 8 10 46 18 85 18
84 25 121 31 161 6 42 17 106 21 130 7 32 17 145 18 197 1 27 3 48 6 48 7 0 8
47 10 270 1 266 -7 399 -40 620 -18 119 -18 122 -30 180 -6 30 -13 71 -16 90
-3 19 -8 39 -11 43 -3 5 -7 23 -10 40 -3 18 -25 100 -49 182 -24 83 -46 157
-48 165 -9 30 -64 176 -90 240 -15 36 -28 70 -30 76 -1 7 -7 18 -13 25 -6 8
-12 17 -12 22 0 4 -8 23 -16 43 -8 20 -15 40 -15 45 0 5 -4 9 -10 9 -5 0 -10
6 -10 13 0 16 -85 183 -124 246 -15 23 -31 52 -36 64 -9 20 -108 177 -127 202
-4 6 -28 39 -53 75 -48 70 -126 173 -175 231 -155 185 -252 288 -414 437 -78
72 -139 132 -134 132 5 0 -159 171 -206 214 -18 17 -48 45 -66 61 -59 56 -161
144 -225 195 -36 28 -73 57 -83 65 -9 8 -21 15 -26 15 -5 0 -11 4 -13 9 -4 11
-257 182 -343 231 -33 19 -73 43 -90 52 -65 38 -357 179 -377 183 -12 3 -25
10 -28 16 -4 6 -10 10 -14 9 -6 -2 -91 29 -141 51 -91 39 -474 150 -600 172
-62 12 -141 26 -170 32 -16 4 -46 8 -65 10 -19 2 -35 4 -35 5 0 1 -16 3 -35 5
-97 8 -168 16 -195 21 -29 5 -492 14 -497 9z"/>
</g>
</svg>
